<svg class="comd-icon" xmlns="http://www.w3.org/2000/svg" viewBox="0 0 24 24" aria-labelledby="{0}" width="24" height="24"><title id="{0}">{1}</title><path d="M19,3H14.8A3,3,0,0,0,9.2,3H5A2,2,0,0,0,3,5V19a2,2,0,0,0,2,2H19a2,2,0,0,0,2-2V5A2,2,0,0,0,19,3ZM12,3a1.08,1.08,0,0,1,1,1,1.08,1.08,0,0,1-1,1,1.08,1.08,0,0,1-1-1A1.08,1.08,0,0,1,12,3ZM10.9,17.9A5.15,5.15,0,0,1,8.4,9.2L7,7.8h3.9v3.9L9.4,10.2a3.66,3.66,0,0,0,1.5,6.1Zm4.7-1.4L17,17.9H13.1V14l1.5,1.5a3.66,3.66,0,0,0-1.5-6.1V7.9A5.06,5.06,0,0,1,15.6,16.5Z"/></svg>