<svg class="comd-icon" xmlns="http://www.w3.org/2000/svg" viewBox="0 0 24 24" aria-labelledby="{0}" width="24" height="24"><title id="{0}">{1}</title><path d="M16.84,8a2.59,2.59,0,0,0,0-5.17,2.84,2.84,0,0,0-.79.12,4.29,4.29,0,0,1,0,4.93A2.84,2.84,0,0,0,16.84,8Z"/><path d="M13.39,8a2.59,2.59,0,1,0-2.58-2.59A2.58,2.58,0,0,0,13.39,8Z"/><path d="M18.23,9.83a3.21,3.21,0,0,1,1.19,2.45V14H22V12.28C22,11,20,10.14,18.23,9.83Z"/><path d="M13.39,9.7c-1.72,0-5.16.86-5.16,2.58V14H18.56V12.28C18.56,10.56,15.12,9.7,13.39,9.7Z"/><path d="M16.17,17.42a9.4,9.4,0,0,1-3-.48.87.87,0,0,0-.85.2L10.51,19A12.56,12.56,0,0,1,5,13.49l1.83-1.84a.82.82,0,0,0,.21-.84,9.45,9.45,0,0,1-.48-3A.83.83,0,0,0,5.75,7H2.83A.84.84,0,0,0,2,7.83,14.16,14.16,0,0,0,16.17,22a.84.84,0,0,0,.83-.83V18.25A.83.83,0,0,0,16.17,17.42Z"/></svg>