<?xml version="1.0" encoding="UTF-8" standalone="no"?>
<svg
style="fill: rgb(0,0,0,.45);"
   xmlns:dc="http://purl.org/dc/elements/1.1/"
   xmlns:cc="http://creativecommons.org/ns#"
   xmlns:rdf="http://www.w3.org/1999/02/22-rdf-syntax-ns#"
   xmlns:svg="http://www.w3.org/2000/svg"
   xmlns="http://www.w3.org/2000/svg"
   xmlns:sodipodi="http://sodipodi.sourceforge.net/DTD/sodipodi-0.dtd"
   xmlns:inkscape="http://www.inkscape.org/namespaces/inkscape"
   class="comd-icon"
   viewBox="0 0 24 24"
   aria-labelledby="RevisionsIcon"
   width="24"
   height="24"
   version="1.1"
   id="svg3727"
   sodipodi:docname="refresh.svg"
   inkscape:version="0.92.4 (5da689c313, 2019-01-14)">
  
  <path
     d="m 3.5147186,5.9188817 c 4.0305087,-4.0305087 10.5358914,-4.0305087 14.5663994,0 l 2.404163,-2.4041631 v 6.3639611 0.1414213 l -6.434671,-0.070711 2.404163,-2.404163 c -3.181981,-3.1819805 -8.1317283,-3.1819805 -11.3137088,0 -3.1819805,3.1819807 -3.1819805,8.1317277 0,11.3137087 3.1819805,3.18198 8.1317278,3.18198 11.3137088,0 1.555635,-1.555635 2.333452,-3.606245 2.262741,-5.656854 l 2.262742,0 c 0.07071,2.616295 -0.848528,5.23259 -2.899138,7.283199 -4.030508,4.030509 -10.5358907,4.030509 -14.5663994,0 -4.03050863,-4.030508 -4.03050863,-10.5358907 0,-14.5663993 z"
     id="path3725"
     inkscape:connector-curvature="0"
     sodipodi:nodetypes="sccccccsssccsss" />
</svg>
